<svg width="41" height="41" viewBox="0 0 41 41" fill="none" xmlns="http://www.w3.org/2000/svg">
<rect x="0.504883" y="0.50708" width="40" height="40" rx="20" fill="#6755DF"/>
<path fill-rule="evenodd" clip-rule="evenodd" d="M20.5049 21.5071V21.5071C18.8479 21.5071 17.5049 20.1641 17.5049 18.5071V18.5071C17.5049 16.8501 18.8479 15.5071 20.5049 15.5071V15.5071C22.1619 15.5071 23.5049 16.8501 23.5049 18.5071V18.5071C23.5049 20.1641 22.1619 21.5071 20.5049 21.5071Z" stroke="white" stroke-width="1.5" stroke-linecap="round" stroke-linejoin="round"/>
<path fill-rule="evenodd" clip-rule="evenodd" d="M20.5049 29.5071C20.5049 29.5071 13.5049 23.7571 13.5049 18.5071C13.5049 14.6411 16.6389 11.5071 20.5049 11.5071C24.3709 11.5071 27.5049 14.6411 27.5049 18.5071C27.5049 23.7571 20.5049 29.5071 20.5049 29.5071Z" stroke="white" stroke-width="1.5" stroke-linecap="round" stroke-linejoin="round"/>
</svg>
