<svg width="41" height="40" viewBox="0 0 41 40" fill="none" xmlns="http://www.w3.org/2000/svg">
<rect x="0.504883" width="40" height="40" rx="20" fill="#6755DF"/>
<path fill-rule="evenodd" clip-rule="evenodd" d="M19.361 21.1441C18.191 19.9741 17.309 18.6641 16.723 17.3351C16.599 17.0541 16.672 16.7251 16.889 16.5081L17.708 15.6901C18.379 15.0191 18.379 14.0701 17.793 13.4841L16.619 12.3101C15.838 11.5291 14.572 11.5291 13.791 12.3101L13.139 12.9621C12.398 13.7031 12.089 14.7721 12.289 15.8321C12.783 18.4451 14.301 21.3061 16.75 23.7551C19.199 26.2041 22.06 27.7221 24.673 28.2161C25.733 28.4161 26.802 28.1071 27.543 27.3661L28.194 26.7151C28.975 25.9341 28.975 24.6681 28.194 23.8871L27.021 22.7141C26.435 22.1281 25.485 22.1281 24.9 22.7141L23.997 23.6181C23.78 23.8351 23.451 23.9081 23.17 23.7841C21.841 23.1971 20.531 22.3141 19.361 21.1441Z" stroke="white" stroke-width="1.5" stroke-linecap="round" stroke-linejoin="round"/>
</svg>
