<svg xmlns="http://www.w3.org/2000/svg" width="200" height="32" viewBox="0 0 119 32">
  <g fill="none" fill-rule="evenodd">
    <g fill-rule="nonzero">
      <g>
        <g fill="#fff">
          <path
            d="M10.356 27.919c-3.012 0-5.495-.994-7.44-2.98C.973 22.952 0 20.426 0 17.35s.972-5.59 2.917-7.587c1.944-1.997 4.427-2.98 7.439-2.98 2.483 0 4.618.888 6.382 2.653h.085v-2.03h5.051v19.888h-5.051v-2.029h-.085c-1.775 1.765-3.899 2.653-6.382 2.653zm.666-4.143c1.711 0 3.106-.602 4.184-1.807 1.078-1.204 1.617-2.737 1.617-4.618 0-1.88-.539-3.423-1.617-4.618-1.078-1.204-2.473-1.807-4.184-1.807-1.744 0-3.17.603-4.29 1.807-1.12 1.205-1.68 2.737-1.68 4.618 0 1.881.56 3.424 1.68 4.618 1.12 1.205 2.546 1.807 4.29 1.807zM26.566 7.397H31.616999999999997V27.284H26.566zM26.566 0H31.616999999999997V5.051H26.566zM36.32 27.295V7.397h5.05V9.88h.085c1.215-2.07 3.065-3.106 5.548-3.106.803 0 1.48.074 2.029.21v4.598c-.666-.17-1.3-.254-1.902-.254-1.797 0-3.202.55-4.227 1.66-1.025 1.109-1.532 2.64-1.532 4.596v9.7H36.32v.011zM60.582 27.919c-3.012 0-5.495-.994-7.44-2.98-1.944-1.987-2.916-4.513-2.916-7.588s.972-5.59 2.917-7.587c1.944-1.987 4.427-2.98 7.439-2.98 2.483 0 4.618.888 6.382 2.653h.085v-2.03H72.1v19.888H67.05v-2.029h-.085c-1.775 1.765-3.899 2.653-6.382 2.653zm.666-4.143c1.711 0 3.106-.602 4.184-1.807 1.078-1.204 1.617-2.737 1.617-4.618 0-1.88-.539-3.423-1.617-4.618-1.078-1.204-2.473-1.807-4.184-1.807-1.744 0-3.17.603-4.29 1.807-1.12 1.205-1.68 2.737-1.68 4.618 0 1.881.56 3.424 1.68 4.618 1.12 1.205 2.546 1.807 4.29 1.807z"
            transform="translate(-32 -96) translate(32 96) translate(36.404 .254)" />
        </g>
        <path fill="#fff"
          d="M115.519 7.038c-.993 0-1.828-.338-2.505-1.025-.676-.687-1.014-1.511-1.014-2.494 0-.983.338-1.818 1.014-2.494C113.691.338 114.526 0 115.52 0c.983 0 1.817.349 2.504 1.036.677.686 1.025 1.521 1.025 2.493 0 .973-.338 1.797-1.025 2.494-.687.666-1.521 1.015-2.504 1.015zm-2.124-1.395c.581.592 1.29.888 2.124.888.835 0 1.543-.296 2.124-.888.581-.592.866-1.3.866-2.135 0-.834-.285-1.553-.866-2.145-.581-.592-1.29-.887-2.124-.887-.835 0-1.543.295-2.124.887-.581.592-.867 1.31-.867 2.145s.286 1.554.867 2.135zm.898-.391V1.648h1.427c.38 0 .687.117.919.35.232.232.349.506.349.823 0 .307-.095.56-.296.761-.2.201-.444.317-.75.338l1.13 1.332h-.528l-1.089-1.279h-.75v1.279h-.412zm.402-1.68h1.035c.233 0 .423-.064.581-.201.159-.137.233-.317.233-.55 0-.221-.074-.401-.233-.549-.158-.148-.359-.222-.591-.222h-1.025v1.522z"
          transform="translate(-32 -96) translate(32 96)" />
        <path fill="#fff" d="M5.5 32C2.464 32 0 29.536 0 26.5S2.464 21 5.5 21s5.5 2.464 5.5 5.5S8.536 32 5.5 32z"
          transform="translate(-32 -96) translate(32 96)" />
        <path fill="#fff"
          d="M21.962 28.853c.157.363.357.694.588 1.014.956 1.29 2.478 2.133 4.2 2.133 2.898 0 5.25-2.39 5.25-5.333 0-.779-.168-1.526-.462-2.198l-10.5-21.322C20.219 1.29 18.381 0 16.25 0 13.352 0 11 2.39 11 5.333c0 .779.168 1.526.462 2.198l10.5 21.322z"
          transform="translate(-32 -96) translate(32 96)" />
      </g>
    </g>
  </g>
</svg>