<?xml version="1.0" encoding="UTF-8"?>
<svg xmlns="http://www.w3.org/2000/svg" width="144" height="144" viewBox="0 0 144 144">
  <g fill="none" fill-rule="evenodd">
    <g fill-rule="nonzero">
      <g>
        <path fill="#6755DF"
          d="M24.75 144C11.088 144 0 132.912 0 119.25S11.088 94.5 24.75 94.5s24.75 11.088 24.75 24.75S38.412 144 24.75 144z"
          transform="translate(-860 -142) translate(860 142)"></path>
        <path fill="#FFAF00"
          d="M98.829 129.84c.709 1.632 1.607 3.12 2.646 4.56 4.3 5.808 11.151 9.6 18.9 9.6C133.416 144 144 133.248 144 120c0-3.504-.756-6.864-2.079-9.888L94.671 14.16C90.985 5.808 82.717 0 73.125 0 60.084 0 49.5 10.752 49.5 24c0 3.504.756 6.864 2.079 9.888l47.25 95.952z"
          transform="translate(-860 -142) translate(860 142)"></path>
      </g>
    </g>
  </g>
</svg>