<svg width="56" height="56" viewBox="0 0 56 56" fill="none" xmlns="http://www.w3.org/2000/svg">
<ellipse cx="20.997" cy="23.3314" rx="14.0058" ry="5.83576" stroke="white" stroke-width="2" stroke-linecap="round" stroke-linejoin="round"/>
<path d="M35.0029 31.5015C35.0029 34.7245 28.7323 37.3372 20.997 37.3372C13.2618 37.3372 6.99121 34.7245 6.99121 31.5015" stroke="white" stroke-width="2" stroke-linecap="round" stroke-linejoin="round"/>
<path d="M49.0088 23.3313C49.0088 26.5543 42.7381 29.1671 35.0029 29.1671" stroke="white" stroke-width="2" stroke-linecap="round" stroke-linejoin="round"/>
<path d="M35.0029 23.3313V40.8386C35.0029 44.0616 28.7323 46.6744 20.997 46.6744C13.2618 46.6744 6.99121 44.0616 6.99121 40.8386V23.3313" stroke="white" stroke-width="2" stroke-linecap="round" stroke-linejoin="round"/>
<path d="M49.0088 15.1614V32.6687C49.0088 35.8917 42.7381 38.5044 35.0029 38.5044" stroke="white" stroke-width="2" stroke-linecap="round" stroke-linejoin="round"/>
<path d="M22.1642 17.5189C21.4712 16.924 21.0499 16.0729 20.9971 15.1612C20.9971 11.9399 27.2764 9.32544 35.0029 9.32544C42.7295 9.32544 49.0087 11.9399 49.0087 15.1612C49.0087 18.3825 42.7295 20.997 35.0029 20.997C34.6061 20.997 34.2092 20.997 33.8358 20.9736" stroke="white" stroke-width="2" stroke-linecap="round" stroke-linejoin="round"/>
</svg>
