<svg width="56" height="56" viewBox="0 0 56 56" fill="none" xmlns="http://www.w3.org/2000/svg">
<path fill-rule="evenodd" clip-rule="evenodd" d="M44.3332 39.6667H41.9998C40.7118 39.6667 39.6665 38.6214 39.6665 37.3334V25.6667C39.6665 24.3787 40.7118 23.3334 41.9998 23.3334H44.3332C46.9115 23.3334 48.9998 25.4217 48.9998 28V35C48.9998 37.5784 46.9115 39.6667 44.3332 39.6667Z" stroke="white" stroke-width="2" stroke-linecap="round" stroke-linejoin="round"/>
<path fill-rule="evenodd" clip-rule="evenodd" d="M14 39.6667H11.6667C9.08833 39.6667 7 37.5784 7 35V28C7 25.4217 9.08833 23.3334 11.6667 23.3334H14C15.288 23.3334 16.3333 24.3787 16.3333 25.6667V37.3334C16.3333 38.6214 15.288 39.6667 14 39.6667Z" stroke="white" stroke-width="2" stroke-linecap="round" stroke-linejoin="round"/>
<path d="M43.1668 23.3333V22.1667C43.1668 13.79 36.3768 7 28.0002 7V7C19.6235 7 12.8335 13.79 12.8335 22.1667V23.3333" stroke="white" stroke-width="2" stroke-linecap="round" stroke-linejoin="round"/>
<path fill-rule="evenodd" clip-rule="evenodd" d="M29.4583 49.5833H26.5417C24.9317 49.5833 23.625 48.2767 23.625 46.6667V46.6667C23.625 45.0567 24.9317 43.75 26.5417 43.75H29.4583C31.0683 43.75 32.375 45.0567 32.375 46.6667V46.6667C32.375 48.2767 31.0683 49.5833 29.4583 49.5833Z" stroke="white" stroke-width="2" stroke-linecap="round" stroke-linejoin="round"/>
<path d="M32.375 46.6666H37.3333C39.9117 46.6666 42 44.5783 42 42V39.6666" stroke="white" stroke-width="2" stroke-linecap="round" stroke-linejoin="round"/>
</svg>
