<svg width="56" height="56" viewBox="0 0 56 56" fill="none" xmlns="http://www.w3.org/2000/svg">
<path d="M51.3332 51.3333H4.6665" stroke="white" stroke-width="2" stroke-linecap="round" stroke-linejoin="round"/>
<path d="M12.8335 16.3333V9.33333C12.8335 8.04467 13.8782 7 15.1668 7H17.5002C18.7888 7 19.8335 8.04467 19.8335 9.33333V16.3333" stroke="white" stroke-width="2" stroke-linecap="round" stroke-linejoin="round"/>
<path d="M26.8335 16.3333V11.6666C26.8335 10.3779 27.8782 9.33325 29.1668 9.33325H31.5002C32.7888 9.33325 33.8335 10.3779 33.8335 11.6666V16.3333" stroke="white" stroke-width="2" stroke-linecap="round" stroke-linejoin="round"/>
<path d="M30.3335 25.6667H16.3335" stroke="white" stroke-width="2" stroke-linecap="round" stroke-linejoin="round"/>
<path d="M30.3335 32.6667H16.3335" stroke="white" stroke-width="2" stroke-linecap="round" stroke-linejoin="round"/>
<path d="M39.6665 32.6666H46.6665C47.9552 32.6666 48.9998 33.7113 48.9998 35V51.3333" stroke="white" stroke-width="2" stroke-linecap="round" stroke-linejoin="round"/>
<path d="M7 51.3333V18.6666C7 17.3779 8.04467 16.3333 9.33333 16.3333H37.3333C38.622 16.3333 39.6667 17.3779 39.6667 18.6666V51.3333" stroke="white" stroke-width="2" stroke-linecap="round" stroke-linejoin="round"/>
<path fill-rule="evenodd" clip-rule="evenodd" d="M20.9998 39.6666H25.6665C26.9552 39.6666 27.9998 40.7113 27.9998 42V51.3333H18.6665V42C18.6665 40.7113 19.7112 39.6666 20.9998 39.6666Z" stroke="white" stroke-width="2" stroke-linecap="round" stroke-linejoin="round"/>
</svg>
