<svg width="56" height="56" viewBox="0 0 56 56" fill="none" xmlns="http://www.w3.org/2000/svg">
<path d="M19.8301 23.3313C19.8301 27.8435 23.4879 31.5014 28.0001 31.5014V31.5014C32.5124 31.5014 36.1702 27.8435 36.1702 23.3313" stroke="white" stroke-width="2" stroke-linecap="round" stroke-linejoin="round"/>
<path d="M19.8301 16.3284V15.1613C19.8301 10.6491 23.4879 6.99121 28.0001 6.99121V6.99121C32.5124 6.99121 36.1702 10.6491 36.1702 15.1613V16.3284" stroke="white" stroke-width="2" stroke-linecap="round" stroke-linejoin="round"/>
<path fill-rule="evenodd" clip-rule="evenodd" d="M15.0775 16.3284C12.6122 16.3284 10.5719 18.2453 10.4181 20.7058L9.34665 37.849C9.16577 40.7431 10.1893 43.5832 12.1747 45.6965C14.16 47.8099 16.9307 49.0086 19.8304 49.0086H36.1698C39.0695 49.0086 41.8402 47.81 43.8256 45.6966C45.811 43.5832 46.8345 40.7431 46.6537 37.849L45.5822 20.7058C45.4284 18.2453 43.3881 16.3284 40.9228 16.3284H15.0775Z" stroke="white" stroke-width="2" stroke-linecap="round" stroke-linejoin="round"/>
</svg>
