<svg width="50" height="50" viewBox="0 0 50 50" fill="none" xmlns="http://www.w3.org/2000/svg">
<path fill-rule="evenodd" clip-rule="evenodd" d="M35.1955 25.247L24.3975 33.8854C23.6014 34.5223 22.4537 34.4588 21.7328 33.7379L16.2621 28.2671C15.5412 27.5462 15.4776 26.3985 16.1145 25.6024L24.7529 14.8044C28.703 9.86681 34.6834 6.99249 41.0066 6.99249V6.99249C42.1116 6.99249 43.0074 7.8883 43.0074 8.99333V8.99333C43.0074 15.3166 40.1331 21.2969 35.1955 25.247Z" stroke="#6755DF" stroke-width="3" stroke-linecap="round" stroke-linejoin="round"/>
<path d="M33.0034 27.0008V35.7684C33.0034 36.5263 32.5752 37.2191 31.8974 37.558L27.0635 39.975C26.5447 40.2344 25.9389 40.2559 25.403 40.034C24.8672 39.812 24.454 39.3684 24.2706 38.8182L22.9993 35.0041" stroke="#6755DF" stroke-width="3" stroke-linecap="round" stroke-linejoin="round"/>
<path d="M14.9957 27.0008L11.1818 25.7295C10.6316 25.5461 10.188 25.1329 9.96603 24.597C9.74406 24.0612 9.76556 23.4553 10.0249 22.9366L12.442 18.1027C12.7809 17.4249 13.4736 16.9966 14.2314 16.9966H22.9991" stroke="#6755DF" stroke-width="3" stroke-linecap="round" stroke-linejoin="round"/>
<path fill-rule="evenodd" clip-rule="evenodd" d="M12.4949 42.1808L6.99243 43.0075L7.81908 37.505C8.08724 35.72 9.48848 34.3187 11.2735 34.0506V34.0506C12.5634 33.8567 13.8687 34.2866 14.7911 35.2089C15.7134 36.1313 16.1433 37.4366 15.9494 38.7265V38.7265C15.6812 40.5115 14.2799 41.9127 12.4949 42.1808V42.1808Z" stroke="#6755DF" stroke-width="3" stroke-linecap="round" stroke-linejoin="round"/>
</svg>
