<svg width="40" height="40" viewBox="0 0 40 40" fill="none" xmlns="http://www.w3.org/2000/svg">
<path fill-rule="evenodd" clip-rule="evenodd" d="M35.6364 23.5942L35.7343 23.5698C37.0703 23.2357 38.0074 22.0352 38.0074 20.6581V19.3412C38.0074 17.964 37.0702 16.7636 35.7342 16.4295L35.6361 16.405C34.6176 16.1498 33.7801 15.4271 33.3786 14.4569C32.977 13.4867 33.0588 12.3836 33.5991 11.4832L33.6403 11.4145C34.3579 10.2316 34.1756 8.71171 33.1985 7.73212L32.2673 6.8009C31.2936 5.82709 29.782 5.64098 28.6011 6.34949L28.5144 6.40151C27.6141 6.94167 26.511 7.02328 25.541 6.62149C24.571 6.2197 23.8488 5.38205 23.5941 4.36348L23.5697 4.2657C23.2356 2.92969 22.0352 1.99249 20.658 1.99249H19.3411C17.9639 1.99249 16.7635 2.92971 16.4294 4.26574L16.4049 4.36378C16.1497 5.38235 15.427 6.21981 14.4568 6.62138C13.4866 7.02295 12.3835 6.94115 11.4831 6.40087L11.4144 6.35967C10.2315 5.64207 8.71159 5.82441 7.732 6.80142L6.80079 7.73262C5.82694 8.70625 5.64075 10.2177 6.34921 11.3986L6.40045 11.484C6.94075 12.3844 7.02256 13.4876 6.62101 14.4578C6.21945 15.428 5.38199 16.1507 4.36342 16.4059L4.2657 16.4304C2.92972 16.7644 1.99243 17.9648 1.99243 19.3419V20.659C1.99243 22.0359 2.92919 23.2362 4.26496 23.5702L4.36204 23.5945C5.38076 23.8491 6.21863 24.5713 6.62075 25.5413C7.02287 26.5113 6.9417 27.6145 6.40193 28.5152L6.35005 28.6016C5.64156 29.7825 5.82763 31.294 6.80135 32.2678L7.73266 33.1991C8.70609 34.1729 10.2174 34.3591 11.3981 33.6508L11.4839 33.5993C12.3843 33.059 13.4874 32.9771 14.4577 33.3787C15.4279 33.7803 16.1506 34.6177 16.4058 35.6363L16.4303 35.7341C16.7643 37.0701 17.9646 38.0075 19.3418 38.0075H20.6589C22.0358 38.0075 23.2361 37.0706 23.5701 35.7348L23.5944 35.6378C23.849 34.6191 24.5711 33.7812 25.5411 33.3791C26.5112 32.977 27.6143 33.0582 28.515 33.598L28.6015 33.6499C29.7824 34.3584 31.2939 34.1723 32.2677 33.1985L33.1991 32.2672C34.1728 31.2938 34.359 29.7825 33.6507 28.6018L33.5992 28.516C33.059 27.6156 32.9772 26.5125 33.3788 25.5422C33.7804 24.572 34.6179 23.8494 35.6364 23.5942Z" stroke="#6755DF" stroke-width="3" stroke-linecap="round" stroke-linejoin="round"/>
<path d="M24.0869 17.447L18.9781 22.5558L15.9155 19.4906" stroke="#6755DF" stroke-width="3" stroke-linecap="round" stroke-linejoin="round"/>
</svg>
