<svg width="42" height="40" viewBox="0 0 42 40" fill="none" xmlns="http://www.w3.org/2000/svg">
<path d="M38.0074 20V28.0033C38.0074 33.5285 33.5284 38.0075 28.0033 38.0075H11.9966C6.47145 38.0075 1.99243 33.5285 1.99243 28.0033V11.9967C1.99243 6.47151 6.47145 1.99249 11.9966 1.99249H19.9999" stroke="#6755DF" stroke-width="3" stroke-linecap="round" stroke-linejoin="round"/>
<path d="M20.6182 17.8771L20.9063 16.7226C21.2561 15.3205 21.9802 14.0398 23.0012 13.0171L32.7832 3.23302C33.8431 2.11798 35.4243 1.66558 36.9135 2.05132C38.4028 2.43706 39.5656 3.60024 39.9508 5.08959C40.336 6.57893 39.8831 8.16004 38.7677 9.21951L28.9836 18.9996C27.9622 20.0241 26.6802 20.7499 25.2761 21.0985L23.8255 21.4626" stroke="#6755DF" stroke-width="3" stroke-linecap="round" stroke-linejoin="round"/>
<path fill-rule="evenodd" clip-rule="evenodd" d="M18.7613 28.0034C21.5969 27.9942 23.9112 25.7319 23.9848 22.8973C24.0584 20.0627 21.8647 17.6834 19.0334 17.527C14.5336 17.2989 13.4931 22.7292 10.9961 24.1558C12.8197 26.607 15.7063 28.0373 18.7613 28.0034V28.0034Z" stroke="#6755DF" stroke-width="3" stroke-linecap="round" stroke-linejoin="round"/>
</svg>
